<?xml version="1.0" encoding="UTF-8"?>
<svg id="Layer_1" data-name="Layer 1" xmlns="http://www.w3.org/2000/svg" viewBox="0 0 129.5 93.5">
  <path d="M124.75,33.5c2.62,0,4.75-2.13,4.75-4.75v-12c0-9.24-7.51-16.75-16.75-16.75h-15.26c0,.09.03.18.03.27v18.09c0,1.93-1.56,3.49-3.49,3.5h-.01c-1.92,0-3.49-1.55-3.5-3.47l-.04-5.6V.27c0-.09.02-.18.03-.27H16.75C7.51,0,0,7.51,0,16.75v12c0,2.62,2.13,4.75,4.75,4.75,7.31,0,13.25,5.94,13.25,13.25s-5.94,13.25-13.25,13.25c-2.62,0-4.75,2.13-4.75,4.75v12c0,9.24,7.51,16.75,16.75,16.75h73.75l-.03-4.13v-13.57c0-1.93,1.57-3.5,3.5-3.5s3.54,1.57,3.54,3.5v17.7h15.24c9.24,0,16.75-7.51,16.75-16.75v-12c0-2.62-2.13-4.75-4.75-4.75-7.31,0-13.25-5.94-13.25-13.25s5.94-13.25,13.25-13.25ZM97.52,55.8c0,1.93-1.56,3.49-3.48,3.5h-.02c-1.92,0-3.48-1.55-3.5-3.47l-.05-5.4v-12.08c0-1.93,1.57-3.5,3.5-3.5s3.55,1.57,3.55,3.5v17.45Z"/>
</svg>